# xmcd
#
# Track frame offsets:
#	150
#	18860
#	37300
#	55967
#	71140
#	89672
#	105260
#	119725
#	134445
#	154609
#
# Disc length: 2263 seconds
#
# Revision: 1
# Processed by: cddbd v1.5.1PL2 Copyright (c) Steve Scherf et al.
# Submitted via: audiograbber 1.83.01
#
DISCID=8d08d50a
DTITLE=Compilation of Artists - Country Super Hits - Volume 103
DYEAR=1995
DGENRE=Country
TTITLE0=01 - Keeper Of The Stars
TTITLE1=02 - I Can Love You Like That
TTITLE2=03 - If I Were You
TTITLE3=04 - You Can't Make A Heart Love Somebody
TTITLE4=05 - Somewhere In The Vicinity Of The Heart
TTITLE5=06 - And Still
TTITLE6=07 - Between The Two Of Them
TTITLE7=08 - You Can Sleep While I Drive
TTITLE8=09 - When You Say Nothing At All
TTITLE9=10 - In Between Dances
EXTD=
EXTT0=
EXTT1=
EXTT2=
EXTT3=
EXTT4=
EXTT5=
EXTT6=
EXTT7=
EXTT8=
EXTT9=
PLAYORDER=
